<svg xmlns="http://www.w3.org/2000/svg" viewBox="0 0 16 16"><style>.icon-canvas-transparent{opacity:0;fill:#f6f6f6}.icon-vs-out{fill:#f6f6f6}.icon-vs-bg{fill:#424242}.icon-vs-fg{fill:#f0eff1}</style><path id="canvas" d="M16 16H0V0h16v16z" class="icon-canvas-transparent"/><path id="outline" d="M15 0v15H1V0h14z" class="icon-vs-out" style="display:none"/><path id="iconFg" d="M4 2v11h9V2H4zm7 3v1H6V4h5v1z" class="icon-vs-fg" style="display:none"/><g id="iconBg"><path d="M2 1v1h1v1H2v1h1v1H2v1h1v1H2v1h1v1H2v1h1v1H2v1h1v1H2v1h12V1H2zm11 12H4V2h9v11zm-2-9v2H6V4h5z" class="icon-vs-bg"/></g></svg>